<svg width="20" height="20" viewBox="0 0 20 20" fill="none" xmlns="http://www.w3.org/2000/svg">
<path opacity="0.5" d="M10 13.3348C5.20002 13.3348 4.35002 8.55149 4.20002 4.75649C4.15752 3.70149 4.13668 3.17316 4.53335 2.68566C4.92918 2.19732 5.40335 2.11732 6.35252 1.95732C7.55821 1.75982 8.77826 1.6631 10 1.66816C11.4867 1.66816 12.7109 1.79899 13.6475 1.95732C14.5967 2.11732 15.0709 2.19732 15.4675 2.68566C15.8642 3.17399 15.8425 3.70149 15.8009 4.75649C15.6509 8.55149 14.8009 13.3348 10.0009 13.3348" fill="#FF6600"/>
<path d="M14.7 10.353L17.0475 9.0488C17.6741 8.70047 17.9875 8.5263 18.1608 8.23297C18.3333 7.93964 18.3333 7.5813 18.3333 6.8638V6.80297C18.3333 5.9338 18.3333 5.4988 18.0975 5.1713C17.8616 4.8438 17.4491 4.7063 16.6241 4.4313L15.8333 4.16797L15.8191 4.2388C15.8147 4.39602 15.8086 4.56852 15.8008 4.7563C15.7275 6.61047 15.4866 8.70047 14.7008 10.353M4.19996 4.7563C4.27246 6.61047 4.51329 8.70047 5.29996 10.353L2.95246 9.0488C2.32579 8.70047 2.01163 8.5263 1.83913 8.23297C1.66663 7.93964 1.66663 7.5813 1.66663 6.8638V6.80297C1.66663 5.9338 1.66663 5.4988 1.90246 5.1713C2.13829 4.8438 2.55079 4.7063 3.37579 4.4313L4.16663 4.16797L4.18079 4.24047C4.18524 4.39658 4.19135 4.5688 4.19913 4.75714" fill="#FF6600"/>
<path fill-rule="evenodd" clip-rule="evenodd" d="M4.375 18.332C4.375 18.1663 4.44085 18.0073 4.55806 17.8901C4.67527 17.7729 4.83424 17.707 5 17.707H15C15.1658 17.707 15.3247 17.7729 15.4419 17.8901C15.5592 18.0073 15.625 18.1663 15.625 18.332C15.625 18.4978 15.5592 18.6568 15.4419 18.774C15.3247 18.8912 15.1658 18.957 15 18.957H5C4.83424 18.957 4.67527 18.8912 4.55806 18.774C4.44085 18.6568 4.375 18.4978 4.375 18.332Z" fill="#FF6600"/>
<path opacity="0.5" d="M12.8816 17.7065H7.11829L7.36579 16.2481C7.40353 16.0593 7.50552 15.8893 7.6544 15.7672C7.80328 15.6451 7.98988 15.5782 8.18245 15.5781H11.8166C12.0092 15.5782 12.1958 15.6451 12.3447 15.7672C12.4936 15.8893 12.5955 16.0593 12.6333 16.2481L12.8816 17.7065Z" fill="#FF6600"/>
<path d="M10 13.333C9.78333 13.333 9.575 13.3236 9.375 13.3047V15.5797H10.625V13.3047C10.4172 13.3239 10.2087 13.3334 10 13.333Z" fill="#FF6600"/>
</svg>
