<svg width="75" height="75" viewBox="0 0 75 75" fill="none" xmlns="http://www.w3.org/2000/svg">
<path opacity="0.5" d="M37.5 50.0056C19.5 50.0056 16.3125 32.0681 15.75 17.8368C15.5906 13.8806 15.5125 11.8993 17 10.0712C18.4844 8.23997 20.2625 7.93997 23.8219 7.33996C28.3432 6.59933 32.9184 6.23662 37.5 6.25559C43.075 6.25559 47.6656 6.74621 51.1781 7.33996C54.7375 7.93997 56.5156 8.23997 58.0031 10.0712C59.4906 11.9025 59.4094 13.8806 59.2531 17.8368C58.6906 32.0681 55.5031 50.0056 37.5031 50.0056" fill="#FF6600"/>
<path d="M55.125 38.8236L63.9281 33.933C66.2781 32.6268 67.4531 31.9736 68.1031 30.8736C68.75 29.7736 68.75 28.4299 68.75 25.7393V25.5111C68.75 22.2518 68.75 20.6205 67.8656 19.3924C66.9812 18.1643 65.4344 17.6486 62.3406 16.6174L59.375 15.6299L59.3219 15.8955C59.3052 16.4851 59.2823 17.132 59.2531 17.8361C58.9781 24.7893 58.075 32.6268 55.1281 38.8236M15.75 17.8361C16.0219 24.7893 16.925 32.6268 19.875 38.8236L11.0719 33.933C8.72187 32.6268 7.54375 31.9736 6.89688 30.8736C6.25 29.7736 6.25 28.4299 6.25 25.7393V25.5111C6.25 22.2518 6.25 20.6205 7.13437 19.3924C8.01875 18.1643 9.56563 17.6486 12.6594 16.6174L15.625 15.6299L15.6781 15.9018C15.6948 16.4872 15.7177 17.133 15.7469 17.8393" fill="#FF6600"/>
<path fill-rule="evenodd" clip-rule="evenodd" d="M16.4062 68.7451C16.4062 68.1235 16.6532 67.5274 17.0927 67.0878C17.5323 66.6483 18.1284 66.4014 18.75 66.4014H56.25C56.8716 66.4014 57.4677 66.6483 57.9073 67.0878C58.3468 67.5274 58.5938 68.1235 58.5938 68.7451C58.5938 69.3667 58.3468 69.9629 57.9073 70.4024C57.4677 70.8419 56.8716 71.0889 56.25 71.0889H18.75C18.1284 71.0889 17.5323 70.8419 17.0927 70.4024C16.6532 69.9629 16.4063 69.3667 16.4062 68.7451Z" fill="#FF6600"/>
<path opacity="0.5" d="M48.3062 66.3992H26.6937L27.6219 60.9305C27.7634 60.2223 28.1458 59.585 28.7042 59.127C29.2625 58.6689 29.9622 58.4184 30.6844 58.418H44.3125C45.0346 58.4184 45.7344 58.6689 46.2927 59.127C46.851 59.585 47.2334 60.2223 47.375 60.9305L48.3062 66.3992Z" fill="#FF6600"/>
<path d="M37.5 49.9988C36.6875 49.9988 35.9062 49.9634 35.1562 49.8926V58.4238H39.8438V49.8926C39.0646 49.9647 38.2825 50.0001 37.5 49.9988Z" fill="#FF6600"/>
</svg>
