<svg width="10" height="11" viewBox="0 0 10 11" fill="none" xmlns="http://www.w3.org/2000/svg">
<path d="M9.48276 6.39733L9.54655 6.3456C9.68784 6.23269 9.80195 6.08947 9.88043 5.92653C9.95892 5.76359 9.99978 5.58509 10 5.40422V4.02492C9.99947 3.73809 9.89679 3.46082 9.71039 3.24282C9.52398 3.02482 9.26603 2.88033 8.98276 2.83526L8.77586 2.8025L8.84828 2.60595C9.01115 2.17358 9.00746 1.6961 8.83793 1.2663C8.6958 0.901691 8.44435 0.589978 8.11808 0.373904C7.79181 0.15783 7.40669 0.0479753 7.01552 0.0594029C6.65723 0.0675539 6.30455 0.15008 5.97985 0.301747C5.65515 0.453413 5.36551 0.670909 5.12931 0.940437L5 1.09388L4.87069 0.947333C4.63531 0.676758 4.34623 0.458094 4.02181 0.305234C3.69739 0.152373 3.34472 0.068657 2.98621 0.0594029H2.94483C2.56066 0.0565066 2.18467 0.170352 1.86662 0.385869C1.54858 0.601386 1.30349 0.90841 1.1638 1.2663C0.995479 1.69385 0.99118 2.16853 1.15173 2.59906L1.22415 2.79561L1.01725 2.82837C0.73281 2.87362 0.473932 3.01911 0.28738 3.23855C0.100827 3.45798 -0.00110034 3.7369 8.96001e-06 4.02492V5.40422C0.000225392 5.58509 0.0410878 5.76359 0.119575 5.92653C0.198063 6.08947 0.312168 6.23269 0.453457 6.3456L0.51725 6.39733V9.19732C0.51725 9.60887 0.680735 10.0036 0.971739 10.2946C1.26274 10.5856 1.65743 10.749 2.06897 10.749H7.93104C8.13481 10.749 8.33659 10.7089 8.52486 10.6309C8.71312 10.5529 8.88418 10.4386 9.02827 10.2946C9.17236 10.1505 9.28666 9.97941 9.36464 9.79114C9.44262 9.60288 9.48276 9.4011 9.48276 9.19732V6.39733ZM4.48276 9.71457H2.06897C1.93179 9.71457 1.80023 9.66007 1.70323 9.56307C1.60623 9.46607 1.55173 9.33451 1.55173 9.19732V6.61112H4.48276V9.71457ZM4.48276 5.57664H1.03449V3.8525H4.48276V5.57664ZM4.48276 2.81802H2.93104C2.70241 2.81802 2.48314 2.7272 2.32147 2.56553C2.1598 2.40386 2.06897 2.18459 2.06897 1.95595C2.06897 1.72732 2.1598 1.50805 2.32147 1.34638C2.48314 1.18471 2.70241 1.09388 2.93104 1.09388C3.34258 1.09388 3.73727 1.25737 4.02827 1.54837C4.31928 1.83938 4.48276 2.23406 4.48276 2.64561V2.81802ZM5.51725 2.64561C5.51725 2.23406 5.68073 1.83938 5.97173 1.54837C6.26274 1.25737 6.65743 1.09388 7.06897 1.09388C7.2976 1.09388 7.51687 1.18471 7.67854 1.34638C7.84021 1.50805 7.93104 1.72732 7.93104 1.95595C7.93104 2.18459 7.84021 2.40386 7.67854 2.56553C7.51687 2.7272 7.2976 2.81802 7.06897 2.81802H5.51725V2.64561ZM8.29828 9.56284C8.25009 9.61109 8.19283 9.64934 8.12981 9.67537C8.06678 9.70141 7.99923 9.71473 7.93104 9.71457H5.51725V6.61112H8.44828V9.19732C8.44861 9.33421 8.39467 9.46565 8.29828 9.56284ZM8.96552 5.57664H5.51725V3.8525H8.96552V5.57664Z" fill="#FF0000"/>
</svg>
