<svg width="10" height="12" viewBox="0 0 10 12" fill="none" xmlns="http://www.w3.org/2000/svg">
<path d="M1 4.90502C1 7.63898 3.4714 9.80717 4.45037 10.7667L4.45079 10.767C4.60259 10.8913 4.67851 10.9535 4.79165 10.9853C4.87967 11.0101 5.00913 11.0101 5.09715 10.9853C5.2104 10.9534 5.28652 10.8912 5.4386 10.7667C6.36014 9.84693 8.88887 7.63896 8.88887 4.905C8.88887 3.87036 8.47332 2.87811 7.73359 2.14651C6.99386 1.41491 5.9906 1.00391 4.94447 1.00391C3.89834 1.00391 2.89503 1.41491 2.1553 2.1465C1.41557 2.8781 1 3.87038 1 4.90502Z" stroke="black" stroke-width="0.5" stroke-linecap="round" stroke-linejoin="round"/>
</svg>
