<svg width="12" height="12" viewBox="0 0 12 12" fill="none" xmlns="http://www.w3.org/2000/svg">
<path d="M8.02763 5.57773L7.73383 5.67197C7.49963 5.74946 7.24477 5.73536 7.02055 5.63251C6.79633 5.52966 6.6194 5.34569 6.52536 5.11763L6.12624 4.11982C6.07081 3.97569 5.92668 3.97569 5.87124 4.11982L5.47212 5.11763C5.37808 5.34569 5.20115 5.52966 4.97693 5.63251C4.75271 5.73536 4.49785 5.74946 4.26365 5.67197L3.96985 5.57773H3.92551C3.89312 5.57892 3.862 5.5906 3.83681 5.61099C3.81771 5.62697 3.80308 5.64762 3.79433 5.67094C3.78559 5.69425 3.78304 5.71944 3.78692 5.74403L4.03637 7.23521C4.06842 7.39219 4.15387 7.53322 4.27818 7.63429C4.4025 7.73536 4.558 7.79022 4.71821 7.78955H7.27927C7.43948 7.79022 7.59498 7.73536 7.7193 7.63429C7.84361 7.53322 7.92907 7.39219 7.96111 7.23521L8.2161 5.73295C8.21999 5.70835 8.21744 5.68317 8.20869 5.65985C8.19995 5.63653 8.18531 5.61588 8.16621 5.59991C8.14718 5.58421 8.1243 5.57388 8.09994 5.56998C8.07557 5.56608 8.05061 5.56876 8.02763 5.57773Z" fill="url(#paint0_linear_2_165)"/>
<path d="M11.5434 4.89132L10.8948 4.24274C10.6005 3.94879 10.4351 3.55 10.4347 3.13406C10.4347 2.71799 10.2694 2.31896 9.97524 2.02476C9.68104 1.73056 9.28201 1.56527 8.86594 1.56527C8.45 1.56495 8.05121 1.39945 7.75726 1.10517L7.10868 0.456592C6.81381 0.164113 6.41532 0 6 0C5.58468 0 5.18619 0.164113 4.89132 0.456592L4.24274 1.10517C3.94879 1.39945 3.55 1.56495 3.13406 1.56527C2.71799 1.56527 2.31896 1.73056 2.02476 2.02476C1.73056 2.31896 1.56527 2.71799 1.56527 3.13406C1.56495 3.55 1.39945 3.94879 1.10517 4.24274L0.456592 4.89132C0.164113 5.18619 0 5.58468 0 6C0 6.41532 0.164113 6.81381 0.456592 7.10868L1.10517 7.75726C1.39945 8.05121 1.56495 8.45 1.56527 8.86594C1.56527 9.28201 1.73056 9.68104 2.02476 9.97524C2.31896 10.2694 2.71799 10.4347 3.13406 10.4347C3.55 10.4351 3.94879 10.6005 4.24274 10.8948L4.89132 11.5434C5.18619 11.8359 5.58468 12 6 12C6.41532 12 6.81381 11.8359 7.10868 11.5434L7.75726 10.8948C8.05121 10.6005 8.45 10.4351 8.86594 10.4347C9.28201 10.4347 9.68104 10.2694 9.97524 9.97524C10.2694 9.68104 10.4347 9.28201 10.4347 8.86594C10.4351 8.45 10.6005 8.05121 10.8948 7.75726L11.5434 7.10868C11.8359 6.81381 12 6.41532 12 6C12 5.58468 11.8359 5.18619 11.5434 4.89132ZM9.03224 5.86696L8.7717 7.35813C8.71372 7.71453 8.53066 8.03862 8.25536 8.27227C7.98006 8.50592 7.63053 8.63385 7.26944 8.63312H4.71947C4.36029 8.63122 4.01341 8.5021 3.74041 8.26869C3.46741 8.03527 3.28597 7.71266 3.2283 7.35813L2.97884 5.86696C2.95197 5.7031 2.96762 5.53508 3.02427 5.379C3.08093 5.22291 3.1767 5.08398 3.30242 4.97551C3.42814 4.86703 3.5796 4.79264 3.7423 4.75946C3.905 4.72628 4.07349 4.73541 4.23165 4.78599L4.52545 4.88577C4.54183 4.892 4.55927 4.89493 4.57679 4.8944C4.5943 4.89387 4.61153 4.88988 4.6275 4.88267C4.64347 4.87546 4.65785 4.86517 4.66983 4.85238C4.68181 4.8396 4.69114 4.82457 4.6973 4.80817L5.10197 3.78264C5.17273 3.60209 5.29628 3.44707 5.45647 3.3378C5.61667 3.22853 5.80608 3.17008 6 3.17008C6.19392 3.17008 6.38333 3.22853 6.54353 3.3378C6.70372 3.44707 6.82727 3.60209 6.89803 3.78264L7.3027 4.78599C7.31627 4.81822 7.34152 4.84413 7.37339 4.85853C7.40526 4.87292 7.4414 4.87473 7.47455 4.8636L7.76835 4.76382C7.92715 4.7108 8.09698 4.69978 8.2613 4.73183C8.42563 4.76389 8.57886 4.83793 8.7061 4.94675C8.83333 5.05557 8.93024 5.19546 8.98739 5.35283C9.04454 5.5102 9.06 5.67968 9.03224 5.84478V5.86696Z" fill="url(#paint1_linear_2_165)"/>
<defs>
<linearGradient id="paint0_linear_2_165" x1="6.00151" y1="4.01172" x2="6.00151" y2="7.78956" gradientUnits="userSpaceOnUse">
<stop stop-color="#BFBFBF"/>
<stop offset="1" stop-color="#AFAFAF"/>
</linearGradient>
<linearGradient id="paint1_linear_2_165" x1="6" y1="0" x2="6" y2="12" gradientUnits="userSpaceOnUse">
<stop stop-color="#BFBFBF"/>
<stop offset="1" stop-color="#AFAFAF"/>
</linearGradient>
</defs>
</svg>
