<svg width="13" height="14" viewBox="0 0 13 14" fill="none" xmlns="http://www.w3.org/2000/svg">
<path d="M7.79945 1.61966L8.90717 3.79915C9.05893 4.0983 9.45578 4.39131 9.78882 4.44068L11.7704 4.76035C13.0392 4.96228 13.3362 5.87812 12.4359 6.79511L10.9023 8.34829C10.6463 8.60861 10.5003 9.11719 10.5871 9.47279L11.0389 11.3802C11.394 12.8861 10.598 13.4773 9.26278 12.6971L7.39756 11.607C7.05788 11.4078 6.50699 11.4158 6.17439 11.6146L4.32384 12.7227C2.99914 13.5147 2.19405 12.9347 2.53134 11.4259L2.96247 9.51664C3.04297 9.15973 2.89754 8.65268 2.63723 8.39664L1.07532 6.86041C0.164029 5.95707 0.449735 5.03816 1.71376 4.81896L3.68741 4.47811C4.02059 4.41782 4.41438 4.12809 4.5597 3.82438L5.64146 1.62756C6.23215 0.444226 7.2015 0.44014 7.79945 1.61966Z" fill="#C5C5C5"/>
</svg>
